<svg id="Layer_1" data-name="Layer 1" xmlns="http://www.w3.org/2000/svg" viewBox="0 0 912 462"><defs><style>.cls-1{fill:#a3cef1;}.cls-2,.cls-4{fill:#fff;}.cls-2{stroke:#000;stroke-miterlimit:10;}.cls-3{fill:#8b8c89;}</style></defs><path class="cls-1" d="M1139,463a51,51,0,0,1-65.2,49,205.06,205.06,0,0,1-361.68,50.69,89,89,0,0,1-109.73,9.88,84.6,84.6,0,0,1-92.16-21.94,72.35,72.35,0,0,1-133.61-21.24,81.5,81.5,0,0,1-107.76-120C243.14,387.14,227,355.11,227,319.5,227,252.4,284.31,198,355,198s128,54.4,128,121.5q0,3.08-.16,6.12A76.48,76.48,0,0,1,598.15,314a134.06,134.06,0,0,1,191.66-53.16,205.19,205.19,0,0,1,264.66,76.46A48,48,0,0,1,1060,337a49,49,0,0,1,40.52,76.55A51,51,0,0,1,1139,463Z" transform="translate(-227 -198)"/><path class="cls-2" d="M1065.32,532.73" transform="translate(-227 -198)"/><path class="cls-2" d="M1104.6,511.24" transform="translate(-227 -198)"/><path class="cls-3" d="M256.71,397.32,321,280l62,124,27-45,24.19,45L476,342l6.49,17,26.34,69L310,478S256.43,397.63,256.71,397.32Z" transform="translate(-227 -198)"/><circle class="cls-3" cx="49" cy="216" r="26"/><path class="cls-3" d="M473,528l88-191,80.66,191L669,451l26,46,27.25-55,43.29,92.73L848,303l11.74,29.61L898.37,430l7.47-49,31.34,61L1006,340l115.17,163.72s-40.53,25.88-55.85-2.42c0,0,17.74-6.52,6.71,17.59s-28.45,70.33-88.74,105.22S850.44,652,850.44,652Q749.5,619.3,752,600q.72-5.55,10-10" transform="translate(-227 -198)"/><ellipse class="cls-3" cx="528.5" cy="390.5" rx="41.5" ry="29.5"/><ellipse class="cls-3" cx="100" cy="266.5" rx="80" ry="76.5"/><ellipse class="cls-3" cx="221.5" cy="319.5" rx="75.5" ry="68.5"/><circle class="cls-3" cx="619" cy="426" r="36"/><ellipse class="cls-3" cx="548.5" cy="406.5" rx="61.5" ry="45.5"/><circle class="cls-3" cx="464.5" cy="366.5" r="31.5"/><ellipse class="cls-3" cx="326.5" cy="347.5" rx="63.5" ry="50.5"/><circle class="cls-3" cx="406" cy="373" r="38"/><polygon class="cls-3" points="281.82 230 310.02 280 165.24 273.83 227.43 226 281.82 230"/><polygon class="cls-3" points="170.32 230 173.38 297 221.5 251 170.32 230"/><polyline class="cls-4" points="77.51 112.1 94 82 115.27 124.53 100 108.17 100 124.53 92 109 85 120 84 110"/><polygon class="cls-4" points="175.65 173.26 183 161 191.18 176.22 188 173 188.58 176.22 185 172 183.41 177 182 172 179 176 179 171 175.65 173.26"/><polygon class="cls-4" points="255.48 161 248.99 144 236.35 162.75 244 158 244 165 248 158 251 167 250 158 255.48 161"/><polyline class="cls-4" points="324.64 159.31 334 139 342.88 160.02 337 154 337.68 160.02 333.76 154.08 332 159 331 154 328 161 328.06 155.5"/><polygon class="cls-4" points="611.53 131.61 621 105 632.74 134.61 626 128 625.37 134.61 622.14 127.93 618.07 134.61 616 128 611.53 131.61"/><polyline class="cls-4" points="486.23 262.21 495.25 244 508.83 273.1 502 267 501.35 273.1 497.53 267.43 496 273.1 493 267 489 275 487 267.7 480.95 272.86"/><polygon class="cls-4" points="435.68 270.79 442 253 453.24 272.89 449 270 448.53 275 444 269.37 441 276 440 270 437.42 275 435.68 270.79"/><polygon class="cls-4" points="766.22 160.95 779 142 800.7 172.84 790 168 789 181 783.46 165.54 781 172 777.54 161.5 772 177 772 165 764 176 761.98 167.23 766.22 160.95"/><polygon class="cls-4" points="674.97 208.37 678.84 183 695.47 215.37 687 209 687.31 215.37 683 208 682.12 215.37 679 209 677.67 215.37 674.97 208.37"/></svg>